<?xml version="1.0" encoding="UTF-8" standalone="no"?>
<svg
   xmlns:dc="http://purl.org/dc/elements/1.1/"
   xmlns:cc="http://creativecommons.org/ns#"
   xmlns:rdf="http://www.w3.org/1999/02/22-rdf-syntax-ns#"
   xmlns:svg="http://www.w3.org/2000/svg"
   xmlns="http://www.w3.org/2000/svg"
   xmlns:sodipodi="http://sodipodi.sourceforge.net/DTD/sodipodi-0.dtd"
   xmlns:inkscape="http://www.inkscape.org/namespaces/inkscape"
   id="Capa_1"
   enable-background="new 0 0 512 512"
   height="512"
   viewBox="0 0 512 512"
   width="512"
   version="1.1"
   sodipodi:docname="filter.svg"
   inkscape:version="1.0.2 (e86c870, 2021-01-15)">
  <metadata
     id="metadata17">
    <rdf:RDF>
      <cc:Work
         rdf:about="">
        <dc:format>image/svg+xml</dc:format>
        <dc:type
           rdf:resource="http://purl.org/dc/dcmitype/StillImage" />
        <dc:title></dc:title>
      </cc:Work>
    </rdf:RDF>
  </metadata>
  <defs
     id="defs15" />
  <sodipodi:namedview
     pagecolor="#ffffff"
     bordercolor="#666666"
     borderopacity="1"
     objecttolerance="10"
     gridtolerance="10"
     guidetolerance="10"
     inkscape:pageopacity="0"
     inkscape:pageshadow="2"
     inkscape:window-width="1920"
     inkscape:window-height="1017"
     id="namedview13"
     showgrid="false"
     inkscape:zoom="1.6601562"
     inkscape:cx="256"
     inkscape:cy="256"
     inkscape:window-x="1912"
     inkscape:window-y="-8"
     inkscape:window-maximized="1"
     inkscape:current-layer="Capa_1" />
  <g
     id="g10"
     style="fill:#53bbe8;fill-opacity:1">
    <path
       d="m420.404 0h-328.808c-50.506 0-91.596 41.09-91.596 91.596v328.809c0 50.505 41.09 91.595 91.596 91.595h328.809c50.505 0 91.595-41.09 91.595-91.596v-328.808c0-50.506-41.09-91.596-91.596-91.596zm61.596 420.404c0 33.964-27.632 61.596-61.596 61.596h-328.808c-33.964 0-61.596-27.632-61.596-61.596v-328.808c0-33.964 27.632-61.596 61.596-61.596h328.809c33.963 0 61.595 27.632 61.595 61.596z"
       id="path2"
       style="fill:#53bbe8;fill-opacity:1" />
    <path
       d="m432.733 112.467h-228.461c-6.281-18.655-23.926-32.133-44.672-32.133s-38.391 13.478-44.672 32.133h-35.661c-8.284 0-15 6.716-15 15s6.716 15 15 15h35.662c6.281 18.655 23.926 32.133 44.672 32.133s38.391-13.478 44.672-32.133h228.461c8.284 0 15-6.716 15-15s-6.716-15-15.001-15zm-273.133 32.133c-9.447 0-17.133-7.686-17.133-17.133s7.686-17.133 17.133-17.133 17.133 7.686 17.133 17.133-7.686 17.133-17.133 17.133z"
       id="path4"
       style="fill:#53bbe8;fill-opacity:1" />
    <path
       d="m432.733 241h-35.662c-6.281-18.655-23.927-32.133-44.672-32.133s-38.39 13.478-44.671 32.133h-228.461c-8.284 0-15 6.716-15 15s6.716 15 15 15h228.461c6.281 18.655 23.927 32.133 44.672 32.133s38.391-13.478 44.672-32.133h35.662c8.284 0 15-6.716 15-15s-6.716-15-15.001-15zm-80.333 32.133c-9.447 0-17.133-7.686-17.133-17.133s7.686-17.133 17.133-17.133 17.133 7.686 17.133 17.133-7.686 17.133-17.133 17.133z"
       id="path6"
       style="fill:#53bbe8;fill-opacity:1" />
    <path
       d="m432.733 369.533h-164.194c-6.281-18.655-23.926-32.133-44.672-32.133s-38.391 13.478-44.672 32.133h-99.928c-8.284 0-15 6.716-15 15s6.716 15 15 15h99.928c6.281 18.655 23.926 32.133 44.672 32.133s38.391-13.478 44.672-32.133h164.195c8.284 0 15-6.716 15-15s-6.716-15-15.001-15zm-208.866 32.134c-9.447 0-17.133-7.686-17.133-17.133s7.686-17.133 17.133-17.133 17.133 7.685 17.133 17.132-7.686 17.134-17.133 17.134z"
       id="path8"
       style="fill:#53bbe8;fill-opacity:1" />
  </g>
</svg>
