<?xml version="1.0" encoding="UTF-8" standalone="no"?>
<svg
   xmlns:dc="http://purl.org/dc/elements/1.1/"
   xmlns:cc="http://creativecommons.org/ns#"
   xmlns:rdf="http://www.w3.org/1999/02/22-rdf-syntax-ns#"
   xmlns:svg="http://www.w3.org/2000/svg"
   xmlns="http://www.w3.org/2000/svg"
   xmlns:sodipodi="http://sodipodi.sourceforge.net/DTD/sodipodi-0.dtd"
   xmlns:inkscape="http://www.inkscape.org/namespaces/inkscape"
   height="512pt"
   viewBox="0 -22 512 512"
   width="512pt"
   version="1.1"
   id="svg12"
   sodipodi:docname="m2.svg"
   inkscape:version="1.0.2 (e86c870, 2021-01-15)">
  <metadata
     id="metadata18">
    <rdf:RDF>
      <cc:Work
         rdf:about="">
        <dc:format>image/svg+xml</dc:format>
        <dc:type
           rdf:resource="http://purl.org/dc/dcmitype/StillImage" />
        <dc:title></dc:title>
      </cc:Work>
    </rdf:RDF>
  </metadata>
  <defs
     id="defs16" />
  <sodipodi:namedview
     pagecolor="#ffffff"
     bordercolor="#666666"
     borderopacity="1"
     objecttolerance="10"
     gridtolerance="10"
     guidetolerance="10"
     inkscape:pageopacity="0"
     inkscape:pageshadow="2"
     inkscape:window-width="1920"
     inkscape:window-height="1017"
     id="namedview14"
     showgrid="false"
     inkscape:zoom="0.62255859"
     inkscape:cx="422.49846"
     inkscape:cy="427.6736"
     inkscape:window-x="1912"
     inkscape:window-y="-8"
     inkscape:window-maximized="1"
     inkscape:current-layer="svg12" />
  <path
     d="m59.332031 467h321.335938v-85.332031h131.332031v-321.714844h-452.667969zm30-377.046875h392.667969v261.714844h-131.332031v85.332031h-261.335938zm0 0"
     id="path2" />
  <path
     d="m59.332031 0h452.667969v30h-452.667969zm0 0"
     id="path4" />
  <path
     d="m0 59.953125h30v407.046875h-30zm0 0"
     id="path6" />
  <path
     d="m264.054688 191.496094-28.863282 48.492187-29.640625-48.492187h-25.222656v91.003906h27.953125v-40.042969l19.761719 31.851563h13.519531l19.761719-33.28125.257812 41.472656h27.953125l-.261718-91.003906zm0 0"
     id="path8" />
  <path
     d="m336.980469 219.058594c8.449219-7.410156 10.398437-11.960938 10.398437-17.160156 0-10.53125-9.617187-17.160157-23.917968-17.160157-13.390626 0-21.84375 5.457031-25.613282 12.867188l15.082032 7.152343c1.6875-3.121093 4.679687-4.941406 8.710937-4.941406 3.640625 0 5.199219 1.5625 5.199219 3.640625 0 1.691407-.78125 3.769531-4.679688 7.019531l-20.671875 17.683594v11.828125h47.582031v-14.816406h-19.242187zm0 0"
     id="path10" />
</svg>
