<?xml version="1.0" encoding="iso-8859-1"?>
<!-- Generator: Adobe Illustrator 19.0.0, SVG Export Plug-In . SVG Version: 6.00 Build 0)  -->
<svg version="1.1" id="Capa_1" xmlns="http://www.w3.org/2000/svg" xmlns:xlink="http://www.w3.org/1999/xlink" x="0px" y="0px"
	 viewBox="0 0 512.008 512.008" style="enable-background:new 0 0 512.008 512.008;" xml:space="preserve">
<g>
	<g>
		<path d="M190.516,91.408c-2.536-3.624-7.544-4.488-11.144-1.968l-80,56c-3.624,2.536-4.496,7.528-1.968,11.144
			c1.552,2.232,4.04,3.416,6.56,3.416c1.584,0,3.184-0.472,4.584-1.448l80-56C192.172,100.016,193.044,95.024,190.516,91.408z"/>
	</g>
</g>
<g>
	<g>
		<path d="M268.548,145.44l-80-56c-3.632-2.528-8.616-1.656-11.144,1.968c-2.536,3.624-1.656,8.616,1.968,11.144l80,56
			c1.4,0.976,2.992,1.448,4.576,1.448c2.52,0,5.008-1.184,6.568-3.416C273.052,152.96,272.172,147.968,268.548,145.44z"/>
	</g>
</g>
<g>
	<g>
		<path d="M190.516,123.408c-2.536-3.624-7.544-4.496-11.144-1.968l-80,56c-3.624,2.536-4.496,7.528-1.968,11.144
			c1.552,2.232,4.04,3.416,6.56,3.416c1.584,0,3.184-0.472,4.584-1.448l80-56C192.172,132.016,193.044,127.024,190.516,123.408z"/>
	</g>
</g>
<g>
	<g>
		<path d="M268.548,177.44l-80-56c-3.632-2.536-8.616-1.656-11.144,1.968c-2.536,3.624-1.656,8.616,1.968,11.144l80,56
			c1.4,0.976,2.992,1.448,4.576,1.448c2.52,0,5.008-1.184,6.568-3.416C273.052,184.96,272.172,179.968,268.548,177.44z"/>
	</g>
</g>
<g>
	<g>
		<path d="M103.956,144c-4.424,0-8,3.576-8,8v32c0,4.424,3.576,8,8,8s8-3.576,8-8v-32C111.956,147.576,108.38,144,103.956,144z"/>
	</g>
</g>
<g>
	<g>
		<path d="M263.956,144c-4.424,0-8,3.576-8,8v32c0,4.424,3.576,8,8,8s8-3.576,8-8v-32C271.956,147.576,268.38,144,263.956,144z"/>
	</g>
</g>
<g>
	<g>
		<path d="M119.956,164.8c-4.424,0-8,3.576-8,8V256c0,4.424,3.576,8,8,8s8-3.576,8-8v-83.2
			C127.956,168.376,124.38,164.8,119.956,164.8z"/>
	</g>
</g>
<g>
	<g>
		<path d="M247.956,248h-128c-4.424,0-8,3.576-8,8s3.576,8,8,8h128c4.424,0,8-3.576,8-8S252.38,248,247.956,248z"/>
	</g>
</g>
<g>
	<g>
		<path d="M247.956,164.8c-4.424,0-8,3.576-8,8V256c0,4.424,3.576,8,8,8s8-3.576,8-8v-83.2
			C255.956,168.376,252.38,164.8,247.956,164.8z"/>
	</g>
</g>
<g>
	<g>
		<path d="M199.956,184h-32c-4.424,0-8,3.576-8,8v64c0,4.424,3.576,8,8,8h32c4.424,0,8-3.576,8-8v-64
			C207.956,187.576,204.38,184,199.956,184z M191.956,248h-16v-48h16V248z"/>
	</g>
</g>
<g>
	<g>
		<path d="M314.076,53.896C279.324,19.144,233.116,0,183.964,0S88.612,19.144,53.852,53.904
			c-71.744,71.728-71.744,188.464,0,260.216c34.752,34.744,80.96,53.888,130.104,53.888c49.152,0,95.352-19.144,130.112-53.896
			c34.752-34.752,53.896-80.96,53.896-130.112S348.828,88.648,314.076,53.896z M302.756,302.792
			C271.02,334.52,228.828,352,183.956,352S96.9,334.528,65.164,302.8c-65.504-65.504-65.504-172.088,0-237.592
			C96.9,33.48,139.092,16,183.964,16s87.064,17.48,118.8,49.208c31.728,31.728,49.2,73.92,49.2,118.792
			S334.492,271.064,302.756,302.792z"/>
	</g>
</g>
<g>
	<g>
		<path d="M291.452,76.52C262.748,47.816,224.572,32,183.964,32c-40.6,0-78.776,15.816-107.488,44.528
			c-59.264,59.264-59.264,155.696,0,214.968c28.712,28.696,66.88,44.512,107.48,44.512s78.784-15.808,107.488-44.52
			c28.704-28.712,44.52-66.888,44.52-107.488C335.964,143.4,320.156,105.224,291.452,76.52z M280.132,280.176
			c-25.68,25.68-59.832,39.832-96.168,39.832s-70.48-14.152-96.168-39.832c-53.024-53.032-53.024-139.32,0-192.344
			C113.476,62.152,147.636,48,183.964,48c36.336,0,70.488,14.152,96.168,39.832c25.688,25.68,39.832,59.84,39.832,96.168
			S305.812,254.496,280.132,280.176z"/>
	</g>
</g>
<g>
	<g>
		<path d="M334.356,357.024l-38.408-38.408c-3.128-3.128-8.184-3.128-11.312,0c-3.128,3.128-3.128,8.184,0,11.312l38.408,38.408
			c1.56,1.56,3.608,2.344,5.656,2.344c2.048,0,4.096-0.784,5.656-2.344C337.484,365.208,337.484,360.152,334.356,357.024z"/>
	</g>
</g>
<g>
	<g>
		<path d="M368.3,323.08l-38.408-38.408c-3.128-3.128-8.184-3.128-11.312,0c-3.128,3.128-3.128,8.184,0,11.312l38.408,38.408
			c1.56,1.56,3.608,2.344,5.656,2.344c2.048,0,4.096-0.784,5.656-2.344C371.428,331.264,371.428,326.208,368.3,323.08z"/>
	</g>
</g>
<g>
	<g>
		<path d="M379.604,311.776c-3.128-3.128-8.184-3.128-11.312,0l-56.56,56.56c-3.128,3.128-3.128,8.184,0,11.312
			c1.56,1.56,3.608,2.344,5.656,2.344s4.088-0.784,5.656-2.344l56.56-56.56C382.732,319.96,382.732,314.904,379.604,311.776z"/>
	</g>
</g>
<g>
	<g>
		<path d="M441.34,486.624L323.044,368.336c-3.128-3.128-8.184-3.128-11.312,0c-3.128,3.128-3.128,8.184,0,11.312l118.296,118.288
			c1.56,1.56,3.608,2.344,5.656,2.344c2.048,0,4.096-0.776,5.656-2.344C444.468,494.808,444.468,489.752,441.34,486.624z"/>
	</g>
</g>
<g>
	<g>
		<path d="M497.892,430.064L379.604,311.776c-3.128-3.128-8.184-3.128-11.312,0c-3.128,3.128-3.128,8.184,0,11.312L486.58,441.376
			c1.56,1.56,3.608,2.344,5.656,2.344c2.048,0,4.096-0.784,5.656-2.344C501.02,438.248,501.02,433.192,497.892,430.064z"/>
	</g>
</g>
<g>
	<g>
		<path d="M497.892,430.064c-3.128-3.128-8.184-3.128-11.312,0c-3.128,3.128-3.128,8.184,0,11.312
			c6.048,6.048,9.376,14.088,9.384,22.632c0,8.544-3.328,16.576-9.376,22.624c-6.04,6.048-14.072,9.376-22.616,9.376
			c-0.008,0-0.008,0-0.008,0c-8.544-0.008-16.584-3.336-22.624-9.384c-3.128-3.128-8.184-3.128-11.312,0
			c-3.128,3.12-3.128,8.184,0,11.312c9.056,9.072,21.104,14.064,33.928,14.072c0.008,0,0.008,0,0.016,0
			c12.824-0.008,24.864-5,33.928-14.064c9.072-9.064,14.064-21.112,14.064-33.936C511.956,451.192,506.964,439.136,497.892,430.064z
			"/>
	</g>
</g>
<g>
</g>
<g>
</g>
<g>
</g>
<g>
</g>
<g>
</g>
<g>
</g>
<g>
</g>
<g>
</g>
<g>
</g>
<g>
</g>
<g>
</g>
<g>
</g>
<g>
</g>
<g>
</g>
<g>
</g>
</svg>
