<?xml version="1.0" encoding="UTF-8" standalone="no"?>
<svg
   xmlns:dc="http://purl.org/dc/elements/1.1/"
   xmlns:cc="http://creativecommons.org/ns#"
   xmlns:rdf="http://www.w3.org/1999/02/22-rdf-syntax-ns#"
   xmlns:svg="http://www.w3.org/2000/svg"
   xmlns="http://www.w3.org/2000/svg"
   xmlns:sodipodi="http://sodipodi.sourceforge.net/DTD/sodipodi-0.dtd"
   xmlns:inkscape="http://www.inkscape.org/namespaces/inkscape"
   version="1.1"
   id="Capa_1"
   x="0px"
   y="0px"
   viewBox="0 0 487.85 487.85"
   style="enable-background:new 0 0 487.85 487.85;"
   xml:space="preserve"
   sodipodi:docname="tagblue.svg"
   inkscape:version="1.0.2 (e86c870879, 2021-01-15, custom)"><metadata
   id="metadata1047"><rdf:RDF><cc:Work
       rdf:about=""><dc:format>image/svg+xml</dc:format><dc:type
         rdf:resource="http://purl.org/dc/dcmitype/StillImage" /><dc:title></dc:title></cc:Work></rdf:RDF></metadata><defs
   id="defs1045" /><sodipodi:namedview
   pagecolor="#ffffff"
   bordercolor="#666666"
   borderopacity="1"
   objecttolerance="10"
   gridtolerance="10"
   guidetolerance="10"
   inkscape:pageopacity="0"
   inkscape:pageshadow="2"
   inkscape:window-width="1920"
   inkscape:window-height="1017"
   id="namedview1043"
   showgrid="false"
   inkscape:zoom="0.15400245"
   inkscape:cx="-498.86349"
   inkscape:cy="-248.13062"
   inkscape:window-x="1912"
   inkscape:window-y="-8"
   inkscape:window-maximized="1"
   inkscape:current-layer="Capa_1" />
<g
   id="g1010"
   style="fill:#05bded;fill-opacity:1">
	<path
   d="M479,215.275l-83.5-113.9c-11-15-33.3-26.3-51.8-26.3H39.2c-21.6,0-39.2,17.6-39.2,39.2v259.3c0,21.6,17.6,39.2,39.2,39.2   h304.5c18.6,0,40.9-11.3,51.8-26.3l83.5-113.9C490.8,256.575,490.8,231.375,479,215.275z M457.2,256.775l-83.5,113.9   c-5.8,8-20.2,15.2-30.1,15.2H39.2c-6.7,0-12.2-5.5-12.2-12.2v-259.4c0-6.7,5.5-12.2,12.2-12.2h304.5c9.9,0,24.2,7.3,30.1,15.2   l83.5,113.9C462.1,237.875,462.1,250.075,457.2,256.775z"
   id="path1008"
   style="fill:#05bded;fill-opacity:1" />
</g>
<g
   id="g1012">
</g>
<g
   id="g1014">
</g>
<g
   id="g1016">
</g>
<g
   id="g1018">
</g>
<g
   id="g1020">
</g>
<g
   id="g1022">
</g>
<g
   id="g1024">
</g>
<g
   id="g1026">
</g>
<g
   id="g1028">
</g>
<g
   id="g1030">
</g>
<g
   id="g1032">
</g>
<g
   id="g1034">
</g>
<g
   id="g1036">
</g>
<g
   id="g1038">
</g>
<g
   id="g1040">
</g>
<rect
   style="fill:#05bded;fill-opacity:1"
   id="rect1614"
   width="364.44226"
   height="290.5798"
   x="22.726912"
   y="98.212723" /></svg>
